<?xml version="1.0" encoding="utf-8"?>
<!-- Generator: Adobe Illustrator 16.0.4, SVG Export Plug-In . SVG Version: 6.00 Build 0)  -->
<!DOCTYPE svg PUBLIC "-//W3C//DTD SVG 1.1//EN" "http://www.w3.org/Graphics/SVG/1.1/DTD/svg11.dtd">
<svg version="1.1" id="Layer_1" xmlns="http://www.w3.org/2000/svg" xmlns:xlink="http://www.w3.org/1999/xlink" x="0px" y="0px"
	 width="110px" height="100px" viewBox="0 0 110 100" enable-background="new 0 0 110 100" xml:space="preserve">
<path fill="#F89823" d="M75.493,10c-8.278,0-15.955,3.783-20.993,9.932C49.462,13.783,41.784,10,33.508,10
	C18.875,10,7,22.06,7,36.838c0,22.467,43.901,54.27,45.822,55.57C53.3,92.762,53.901,93,54.5,93s1.2-0.238,1.678-0.592
	C58.098,91.107,102,59.305,102,36.838C102,22.06,90.125,10,75.493,10z"/>
<path fill="#FFFFFF" d="M73.399,40.744c-1.043,5.859-4.484,14.799-18.874,14.799c-2.084,0-3.335,0-3.335,0h-0.938
	c-0.521,0-1.043,0.516-1.147,1.029c0,0-2.815,17.062-2.919,18.09c0,0.719,0.417,1.336,1.146,1.336h6.988
	c0.833,0,1.564-0.719,1.771-1.646l1.669-10.174c0.209-0.82,0.939-1.645,1.877-1.645h1.252c7.611,0,13.556-2.98,15.326-11.718
	C76.945,47.013,76.736,42.903,73.399,40.744z M50.251,53.59c2.606,0,4.484,0,4.484,0c2.293,0,4.379-0.203,6.256-0.82
	c4.692-1.338,7.924-4.317,9.594-9.148c1.98-6.064,1.042-9.559-1.251-12.127c-2.296-2.466-6.362-3.598-11.471-3.598H43.578
	c-1.043,0-1.878,0.823-2.085,1.851l-6.257,39.365c-0.208,0.822,0.417,1.439,1.252,1.439h8.341c0,0,2.188-13.67,2.188-14.184
	C47.227,55.029,48.27,53.59,50.251,53.59z"/>
<path fill="#F89823" d="M228.993,10c-8.278,0-15.955,3.783-20.993,9.932C202.962,13.783,195.284,10,187.008,10
	C172.375,10,160.5,22.06,160.5,36.838c0,22.467,43.901,54.27,45.822,55.57C206.8,92.762,207.4,93,208,93s1.2-0.238,1.678-0.592
	c1.92-1.301,45.822-33.104,45.822-55.57C255.5,22.06,243.625,10,228.993,10z M189.988,70.551c-0.836,0-1.461-0.617-1.252-1.439
	l6.257-39.365c0.207-1.028,1.042-1.851,2.085-1.851h14.285c5.108,0,9.175,1.131,11.471,3.598c2.293,2.569,3.231,6.063,1.251,12.127
	c-1.67,4.832-4.901,7.811-9.594,9.148c-1.877,0.617-3.963,0.82-6.256,0.82c0,0-1.878,0-4.483,0c-1.982,0-3.025,1.439-3.234,2.777
	c0,0.514-2.188,14.184-2.188,14.184H189.988z M229.714,50.815c-1.771,8.738-7.715,11.718-15.326,11.718h-1.252
	c-0.938,0-1.668,0.824-1.877,1.645l-1.669,10.174c-0.207,0.928-0.938,1.646-1.771,1.646h-6.987c-0.729,0-1.146-0.617-1.146-1.336
	c0.104-1.027,2.919-18.09,2.919-18.09c0.104-0.514,0.626-1.029,1.147-1.029h0.938c0,0,1.252,0,3.336,0
	c14.39,0,17.831-8.94,18.874-14.799C230.236,42.903,230.445,47.013,229.714,50.815z"/>
</svg>
